# xmcd CD database file
#
# Track frame offsets:
#	150
#	31317
#	61397
#	74814
#	87334
#	109174
#	130238
#
# Disc length: 2037 seconds
#
# Revision: 0
# Processed by: cddbd v1.5.2PL0 Copyright (c) Steve Scherf et al.
# Submitted via: CDex 1.51
#
DISCID=6407f307
DTITLE=Eric Dolphy - Out There
DYEAR=1960
DGENRE=Jazz
TTITLE0=Out There 
TTITLE1=Serene
TTITLE2=Baron
TTITLE3=Eclipse 
TTITLE4=17 West 
TTITLE5=Sketch of Melba 	
TTITLE6=Feathers 
EXTD=YEAR: 1960
EXTT0=
EXTT1=
EXTT2=
EXTT3=
EXTT4=
EXTT5=
EXTT6=
PLAYORDER=
